<svg xmlns="http://www.w3.org/2000/svg" version="1.1" id="Layer_1" viewBox="0 0 679.84 679.84" width="679.84" height="679.84"><defs>
    <style>
      .st0 {
        fill: #fff;
      }
    </style>
  </defs><circle class="st0" cx="339.92" cy="339.92" r="339.92"></circle><path d="M607.41,444.92c-7.76,27.94-20.53,48.75-38.31,62.41-17.78,13.66-41.41,20.49-70.91,20.49h-18.86c-9.01,0-15.52-1.24-19.56-3.73-4.04-2.48-6.79-5.66-8.27-9.55-1.47-3.85-2.2-14.34-2.21-31.48v-89.37c15.06,0,26.55,1.98,34.46,5.94,7.92,3.96,14.86,11.68,20.84,23.17,5.97,11.49,9.9,26.24,11.76,44.24h8.85v-165.33h-8.85c-2.49,24.53-8.23,43.08-17.23,55.65-9.01,12.57-23.52,18.86-43.55,18.86h-6.29v-128.54h32.6c23.91,0,40.2,1.4,48.9,4.19,14.9,4.66,26.43,11.96,34.58,21.89,8.15,9.94,14.47,26.31,18.98,49.13h8.85v-93.38h-143.91v-24.68c0-15.68.85-25.38,2.56-29.11,2.33-5.12,5.43-8.77,9.31-10.94,5.59-3.26,13.04-4.89,22.35-4.89h10.25v-8.62h-128.54l-85.69,208.18-88.72-208.18H61.81v8.62h10.01c8.85,0,15.91,1.51,21.19,4.54,5.28,3.03,8.77,6.52,10.48,10.48,1.71,3.96,2.56,13.93,2.56,29.92v199.8c0,14.13-.16,22.04-.47,23.75-1.71,7.3-4.11,12.96-7.22,17-3.11,4.04-7.68,7.26-13.74,9.66-6.05,2.41-12.57,3.53-19.56,3.38h-3.26v8.62h108.05v-8.62c-14.44,0-25.03-2.45-31.79-7.34-6.75-4.89-11.14-11.21-13.16-18.98-.78-3.57-1.16-13.12-1.16-28.64v-222.38l122.95,285.95h5.59l121.09-288.05v312.27c0,15.83-.86,25.61-2.56,29.34-2.18,5.28-5.28,9.01-9.31,11.18-5.59,3.26-12.96,4.89-22.12,4.89h-10.48v8.62h272.91l14.2-100.36h-8.62Z"></path></svg>